# xmcd
#
# Track frame offsets:
# 150
# 9202
# 19500
# 31722
# 42970
# 52670
# 62287
# 72025
# 83435
# 93480
# 107285
# 115495
# 126915
# 139722
# 151250
# 161502
# 171952
# 183625
# 192180
# 203975
# 213277
# 220745
# 233117
# 240890
# 251760
# 260515
# 272090
# 284660
# 297435
# 308160
#
# Disc length: 4253 seconds
#
#
# Revision: 0
# Processed by: cddbd v1.5.1PL2 Copyright (c) Steve Scherf et al.
# Submitted via: FreeRIP 2.944 
#
DISCID=95109b1e
DTITLE=Mack Self - Vibrate
DYEAR=1997
DGENRE=Rockabilly
TTITLE0=Vibrate
TTITLE1=Mad At You
TTITLE2=Easy To Love (Master)
TTITLE3=Goin' Crazy (Version 1)
TTITLE4=Everyday
TTITLE5=Lovin' Memories
TTITLE6=Little One
TTITLE7=Willie Brown
TTITLE8=Mexican Limbo
TTITLE9=You Put These Tears In My Eyes
TTITLE10=Breakin' New Ground
TTITLE11=Four Walls Of Memories (Version 1)
TTITLE12=Jody McClain
TTITLE13=Mortals Make Mistakes (Version 1)
TTITLE14=Goin' Crazy (Version 2)
TTITLE15=What Makes A Heart Keep On Lovin'
TTITLE16=Folsom Prison Blues
TTITLE17=Teardrops Fallin'
TTITLE18=Lonely Echoes
TTITLE19=Four Walls Two Windows
TTITLE20=Yesterday's Gone
TTITLE21=Goin' Back To Georgia
TTITLE22=What'll I Do
TTITLE23=Four Walls Of Memories (Version 2)
TTITLE24=Bridges
TTITLE25=Mortals Make Mistakes (Version 2)
TTITLE26=Jody McClain (Version 2)
TTITLE27=Easy To Love (Alternate)
TTITLE28=Goin' Crazy (Version 3)
TTITLE29=I've Got Pennies In My Pocket
EXTD=Gee-Dee Music\n2701 130-2
EXTT0=
EXTT1=
EXTT2=
EXTT3=
EXTT4=
EXTT5=
EXTT6=
EXTT7=
EXTT8=
EXTT9=
EXTT10=
EXTT11=
EXTT12=
EXTT13=
EXTT14=
EXTT15=
EXTT16=
EXTT17=
EXTT18=
EXTT19=
EXTT20=
EXTT21=
EXTT22=
EXTT23=
EXTT24=
EXTT25=
EXTT26=
EXTT27=
EXTT28=
EXTT29=
PLAYORDER=
